<svg xmlns="http://www.w3.org/2000/svg">
  <symbol id="workflow" viewBox="0 0 24 24">
    <path d="M5 7.5h4.2M14.8 7.5H19M7 7.5v9M17 7.5v9M7 16.5h10" fill="none" stroke="currentColor" stroke-width="1.8" stroke-linecap="round"/>
    <rect x="3" y="4.5" width="4" height="6" rx="1.4" fill="none" stroke="currentColor" stroke-width="1.8"/>
    <rect x="10" y="4.5" width="4" height="6" rx="1.4" fill="none" stroke="currentColor" stroke-width="1.8"/>
    <rect x="17" y="13.5" width="4" height="6" rx="1.4" fill="none" stroke="currentColor" stroke-width="1.8"/>
  </symbol>
  <symbol id="device" viewBox="0 0 24 24">
    <rect x="7" y="3" width="10" height="18" rx="2.6" fill="none" stroke="currentColor" stroke-width="1.8"/>
    <path d="M10 6h4M11 18h2" fill="none" stroke="currentColor" stroke-width="1.8" stroke-linecap="round"/>
  </symbol>
  <symbol id="dump" viewBox="0 0 24 24">
    <rect x="4" y="4" width="16" height="16" rx="3" fill="none" stroke="currentColor" stroke-width="1.8"/>
    <path d="M8 8h8M8 12h4M8 16h8M16 12l2 2-2 2" fill="none" stroke="currentColor" stroke-width="1.8" stroke-linecap="round" stroke-linejoin="round"/>
  </symbol>
  <symbol id="log" viewBox="0 0 24 24">
    <path d="M5 7h14M5 12h14M5 17h10" fill="none" stroke="currentColor" stroke-width="1.8" stroke-linecap="round"/>
    <circle cx="4" cy="7" r="1" fill="currentColor"/>
    <circle cx="4" cy="12" r="1" fill="currentColor"/>
    <circle cx="4" cy="17" r="1" fill="currentColor"/>
  </symbol>
  <symbol id="storage" viewBox="0 0 24 24">
    <ellipse cx="12" cy="6" rx="7" ry="3" fill="none" stroke="currentColor" stroke-width="1.8"/>
    <path d="M5 6v6c0 1.7 3.1 3 7 3s7-1.3 7-3V6M5 12v6c0 1.7 3.1 3 7 3s7-1.3 7-3v-6" fill="none" stroke="currentColor" stroke-width="1.8"/>
  </symbol>
  <symbol id="library" viewBox="0 0 24 24">
    <rect x="4" y="5" width="6" height="6" rx="1.6" fill="none" stroke="currentColor" stroke-width="1.8"/>
    <rect x="14" y="5" width="6" height="6" rx="1.6" fill="none" stroke="currentColor" stroke-width="1.8"/>
    <rect x="4" y="15" width="6" height="4" rx="1.4" fill="none" stroke="currentColor" stroke-width="1.8"/>
    <rect x="14" y="15" width="6" height="4" rx="1.4" fill="none" stroke="currentColor" stroke-width="1.8"/>
  </symbol>
  <symbol id="terminal" viewBox="0 0 24 24">
    <rect x="3.5" y="5" width="17" height="14" rx="3" fill="none" stroke="currentColor" stroke-width="1.8"/>
    <path d="M7 9l3 3-3 3M12 15h5" fill="none" stroke="currentColor" stroke-width="1.8" stroke-linecap="round" stroke-linejoin="round"/>
  </symbol>
  <symbol id="package" viewBox="0 0 24 24">
    <path d="M12 3.5l7 4v8.8l-7 4.2-7-4.2V7.5l7-4z" fill="none" stroke="currentColor" stroke-width="1.8" stroke-linejoin="round"/>
    <path d="M5.4 7.8L12 12l6.6-4.2M12 12v8" fill="none" stroke="currentColor" stroke-width="1.8" stroke-linecap="round"/>
  </symbol>
  <symbol id="app" viewBox="0 0 24 24">
    <rect x="4" y="4" width="7" height="7" rx="2" fill="none" stroke="currentColor" stroke-width="1.8"/>
    <rect x="13" y="4" width="7" height="7" rx="2" fill="none" stroke="currentColor" stroke-width="1.8"/>
    <rect x="4" y="13" width="7" height="7" rx="2" fill="none" stroke="currentColor" stroke-width="1.8"/>
    <path d="M16.5 14v5M14 16.5h5" fill="none" stroke="currentColor" stroke-width="1.8" stroke-linecap="round"/>
  </symbol>
  <symbol id="screenshot" viewBox="0 0 24 24">
    <rect x="4" y="5" width="16" height="14" rx="3" fill="none" stroke="currentColor" stroke-width="1.8"/>
    <circle cx="12" cy="12" r="3" fill="none" stroke="currentColor" stroke-width="1.8"/>
    <path d="M8 5l1.2-2h5.6L16 5" fill="none" stroke="currentColor" stroke-width="1.8" stroke-linecap="round"/>
  </symbol>
  <symbol id="keyboard" viewBox="0 0 24 24">
    <rect x="3.5" y="7" width="17" height="10" rx="2.5" fill="none" stroke="currentColor" stroke-width="1.8"/>
    <path d="M7 10h.1M10.5 10h.1M14 10h.1M17.5 10h.1M7 14h7M17 14h.1" fill="none" stroke="currentColor" stroke-width="2.2" stroke-linecap="round"/>
  </symbol>
  <symbol id="clipboard" viewBox="0 0 24 24">
    <rect x="6" y="5" width="12" height="16" rx="2.5" fill="none" stroke="currentColor" stroke-width="1.8"/>
    <path d="M9 5.5C9 4.1 10.1 3 11.5 3h1C13.9 3 15 4.1 15 5.5V6H9v-.5zM9 11h6M9 15h4" fill="none" stroke="currentColor" stroke-width="1.8" stroke-linecap="round"/>
  </symbol>
  <symbol id="target" viewBox="0 0 24 24">
    <circle cx="12" cy="12" r="7" fill="none" stroke="currentColor" stroke-width="1.8"/>
    <circle cx="12" cy="12" r="3" fill="none" stroke="currentColor" stroke-width="1.8"/>
    <path d="M12 3v3M12 18v3M3 12h3M18 12h3" fill="none" stroke="currentColor" stroke-width="1.8" stroke-linecap="round"/>
  </symbol>
  <symbol id="script" viewBox="0 0 24 24">
    <path d="M8 4h7l4 4v12H8a3 3 0 0 1-3-3V7a3 3 0 0 1 3-3z" fill="none" stroke="currentColor" stroke-width="1.8" stroke-linejoin="round"/>
    <path d="M15 4v5h5M9 12l-2 2 2 2M15 12l2 2-2 2M12.5 11l-1 6" fill="none" stroke="currentColor" stroke-width="1.8" stroke-linecap="round" stroke-linejoin="round"/>
  </symbol>
  <symbol id="file" viewBox="0 0 24 24">
    <path d="M7 3.5h7l4 4V20H7a2 2 0 0 1-2-2V5.5a2 2 0 0 1 2-2z" fill="none" stroke="currentColor" stroke-width="1.8" stroke-linejoin="round"/>
    <path d="M14 3.5v5h5M8 13h8M8 17h5" fill="none" stroke="currentColor" stroke-width="1.8" stroke-linecap="round"/>
  </symbol>
  <symbol id="shield" viewBox="0 0 24 24">
    <path d="M12 3.5l7 2.6v5.2c0 4.3-2.8 7.4-7 9.2-4.2-1.8-7-4.9-7-9.2V6.1l7-2.6z" fill="none" stroke="currentColor" stroke-width="1.8" stroke-linejoin="round"/>
    <path d="M9 12l2 2 4-5" fill="none" stroke="currentColor" stroke-width="1.8" stroke-linecap="round" stroke-linejoin="round"/>
  </symbol>
  <symbol id="record" viewBox="0 0 24 24">
    <rect x="4" y="6" width="12" height="12" rx="3" fill="none" stroke="currentColor" stroke-width="1.8"/>
    <path d="M16 10l4-2v8l-4-2" fill="none" stroke="currentColor" stroke-width="1.8" stroke-linejoin="round"/>
    <circle cx="10" cy="12" r="2" fill="currentColor"/>
  </symbol>
  <symbol id="filter" viewBox="0 0 24 24">
    <path d="M4 6h16M7 12h10M10 18h4" fill="none" stroke="currentColor" stroke-width="1.8" stroke-linecap="round"/>
  </symbol>
  <symbol id="spark" viewBox="0 0 24 24">
    <path d="M12 3l1.4 5.1L18.5 9.5l-5.1 1.4L12 16l-1.4-5.1L5.5 9.5l5.1-1.4L12 3zM18 15l.7 2.3L21 18l-2.3.7L18 21l-.7-2.3L15 18l2.3-.7L18 15z" fill="none" stroke="currentColor" stroke-width="1.6" stroke-linejoin="round"/>
  </symbol>
  <symbol id="broom" viewBox="0 0 24 24">
    <path d="M14 4l6 6M12 6l6 6-6.5 6.5c-2.2 2.2-5.4 2.5-8.5 1l7-7L12 6z" fill="none" stroke="currentColor" stroke-width="1.8" stroke-linecap="round" stroke-linejoin="round"/>
  </symbol>
  <symbol id="anchor" viewBox="0 0 24 24">
    <path d="M12 4v13M8 8h8M6 17c1.5 2 3.5 3 6 3s4.5-1 6-3M6 17H4v-3M18 17h2v-3" fill="none" stroke="currentColor" stroke-width="1.8" stroke-linecap="round" stroke-linejoin="round"/>
    <circle cx="12" cy="4" r="2" fill="none" stroke="currentColor" stroke-width="1.8"/>
  </symbol>
  <symbol id="refresh" viewBox="0 0 24 24">
    <path d="M20 6v5h-5M4 18v-5h5M18.2 10A6.5 6.5 0 0 0 6.8 7.2L4 10M5.8 14a6.5 6.5 0 0 0 11.4 2.8L20 14" fill="none" stroke="currentColor" stroke-width="1.8" stroke-linecap="round" stroke-linejoin="round"/>
  </symbol>
  <symbol id="save" viewBox="0 0 24 24">
    <path d="M5 4h12l2 2v14H5V4z" fill="none" stroke="currentColor" stroke-width="1.8" stroke-linejoin="round"/>
    <path d="M8 4v6h8V4M8 20v-6h8v6" fill="none" stroke="currentColor" stroke-width="1.8" stroke-linejoin="round"/>
  </symbol>
  <symbol id="play" viewBox="0 0 24 24">
    <path d="M8 5.5v13l10-6.5-10-6.5z" fill="none" stroke="currentColor" stroke-width="1.8" stroke-linejoin="round"/>
  </symbol>
  <symbol id="eye" viewBox="0 0 24 24">
    <path d="M3.5 12s3.2-6 8.5-6 8.5 6 8.5 6-3.2 6-8.5 6-8.5-6-8.5-6z" fill="none" stroke="currentColor" stroke-width="1.8" stroke-linejoin="round"/>
    <circle cx="12" cy="12" r="2.5" fill="none" stroke="currentColor" stroke-width="1.8"/>
  </symbol>
  <symbol id="trash" viewBox="0 0 24 24">
    <path d="M4 7h16M9 7V4h6v3M7 7l1 13h8l1-13M10 11v5M14 11v5" fill="none" stroke="currentColor" stroke-width="1.8" stroke-linecap="round" stroke-linejoin="round"/>
  </symbol>
  <symbol id="copy" viewBox="0 0 24 24">
    <rect x="8" y="8" width="11" height="11" rx="2" fill="none" stroke="currentColor" stroke-width="1.8"/>
    <path d="M5 15V6a1 1 0 0 1 1-1h9" fill="none" stroke="currentColor" stroke-width="1.8" stroke-linecap="round"/>
  </symbol>
  <symbol id="search" viewBox="0 0 24 24">
    <circle cx="11" cy="11" r="6" fill="none" stroke="currentColor" stroke-width="1.8"/>
    <path d="M16 16l4 4" fill="none" stroke="currentColor" stroke-width="1.8" stroke-linecap="round"/>
  </symbol>
  <symbol id="settings" viewBox="0 0 24 24">
    <path d="M12 8.5a3.5 3.5 0 1 1 0 7 3.5 3.5 0 0 1 0-7z" fill="none" stroke="currentColor" stroke-width="1.8"/>
    <path d="M19 12a7.4 7.4 0 0 0-.1-1.2l2-1.5-2-3.4-2.4 1a7.6 7.6 0 0 0-2-1.2L14.2 3h-4.4l-.3 2.7a7.6 7.6 0 0 0-2 1.2l-2.4-1-2 3.4 2 1.5A7.4 7.4 0 0 0 5 12c0 .4 0 .8.1 1.2l-2 1.5 2 3.4 2.4-1c.6.5 1.3.9 2 1.2l.3 2.7h4.4l.3-2.7c.7-.3 1.4-.7 2-1.2l2.4 1 2-3.4-2-1.5c.1-.4.1-.8.1-1.2z" fill="none" stroke="currentColor" stroke-width="1.4" stroke-linejoin="round"/>
  </symbol>
  <symbol id="folder-open" viewBox="0 0 24 24">
    <path d="M3.5 8h7l2 2H21l-2 9H5L3.5 8z" fill="none" stroke="currentColor" stroke-width="1.8" stroke-linejoin="round"/>
    <path d="M4 8V5.5h6l2 2h6V10" fill="none" stroke="currentColor" stroke-width="1.8" stroke-linejoin="round"/>
  </symbol>
  <symbol id="home" viewBox="0 0 24 24">
    <path d="M4 11.5L12 5l8 6.5V20h-6v-5h-4v5H4v-8.5z" fill="none" stroke="currentColor" stroke-width="1.8" stroke-linejoin="round"/>
  </symbol>
  <symbol id="power" viewBox="0 0 24 24">
    <path d="M12 3v8M7.2 6.8A8 8 0 1 0 16.8 6.8" fill="none" stroke="currentColor" stroke-width="1.8" stroke-linecap="round"/>
  </symbol>
  <symbol id="import" viewBox="0 0 24 24">
    <path d="M12 4v10M8 10l4 4 4-4M5 20h14" fill="none" stroke="currentColor" stroke-width="1.8" stroke-linecap="round" stroke-linejoin="round"/>
  </symbol>
  <symbol id="export" viewBox="0 0 24 24">
    <path d="M12 16V6M8 10l4-4 4 4M5 20h14" fill="none" stroke="currentColor" stroke-width="1.8" stroke-linecap="round" stroke-linejoin="round"/>
  </symbol>
  <symbol id="columns" viewBox="0 0 24 24">
    <rect x="4" y="5" width="16" height="14" rx="2.5" fill="none" stroke="currentColor" stroke-width="1.8"/>
    <path d="M9 5v14M15 5v14" fill="none" stroke="currentColor" stroke-width="1.8"/>
  </symbol>
  <symbol id="alert" viewBox="0 0 24 24">
    <path d="M12 4l9 16H3L12 4z" fill="none" stroke="currentColor" stroke-width="1.8" stroke-linejoin="round"/>
    <path d="M12 9v5M12 17h.1" fill="none" stroke="currentColor" stroke-width="2" stroke-linecap="round"/>
  </symbol>
  <symbol id="activity" viewBox="0 0 24 24">
    <path d="M4 13h4l2-6 4 10 2-4h4" fill="none" stroke="currentColor" stroke-width="1.8" stroke-linecap="round" stroke-linejoin="round"/>
  </symbol>
  <symbol id="binder" viewBox="0 0 24 24">
    <path d="M8 12h8M9 8h6M9 16h6" fill="none" stroke="currentColor" stroke-width="1.8" stroke-linecap="round"/>
    <rect x="4" y="5" width="16" height="14" rx="3" fill="none" stroke="currentColor" stroke-width="1.8"/>
  </symbol>
  <symbol id="chevron-down" viewBox="0 0 24 24">
    <path d="M7 10l5 5 5-5" fill="none" stroke="currentColor" stroke-width="2" stroke-linecap="round" stroke-linejoin="round"/>
  </symbol>
  <symbol id="chevron-right" viewBox="0 0 24 24">
    <path d="M10 7l5 5-5 5" fill="none" stroke="currentColor" stroke-width="2" stroke-linecap="round" stroke-linejoin="round"/>
  </symbol>
  <symbol id="arrow-up" viewBox="0 0 24 24">
    <path d="M12 19V5M7 10l5-5 5 5" fill="none" stroke="currentColor" stroke-width="1.8" stroke-linecap="round" stroke-linejoin="round"/>
  </symbol>
  <symbol id="arrow-down" viewBox="0 0 24 24">
    <path d="M12 5v14M7 14l5 5 5-5" fill="none" stroke="currentColor" stroke-width="1.8" stroke-linecap="round" stroke-linejoin="round"/>
  </symbol>
  <symbol id="sun" viewBox="0 0 24 24">
    <circle cx="12" cy="12" r="4" fill="none" stroke="currentColor" stroke-width="1.8"/>
    <path d="M12 2.5v3M12 18.5v3M4.8 4.8l2.1 2.1M17.1 17.1l2.1 2.1M2.5 12h3M18.5 12h3M4.8 19.2l2.1-2.1M17.1 6.9l2.1-2.1" fill="none" stroke="currentColor" stroke-width="1.8" stroke-linecap="round"/>
  </symbol>
  <symbol id="moon" viewBox="0 0 24 24">
    <path d="M20 14.5A7.8 7.8 0 0 1 9.5 4a8.5 8.5 0 1 0 10.5 10.5z" fill="none" stroke="currentColor" stroke-width="1.8" stroke-linejoin="round"/>
  </symbol>
</svg>
