<svg xmlns="http://www.w3.org/2000/svg" viewBox="0 0 512 512">
  <defs>
    <linearGradient id="g" x1="0" y1="0" x2="1" y2="1">
      <stop offset="0" stop-color="#17f7d1"/>
      <stop offset="1" stop-color="#3b82f6"/>
    </linearGradient>
    <filter id="glow"><feGaussianBlur stdDeviation="8" result="b"/><feMerge><feMergeNode in="b"/><feMergeNode in="SourceGraphic"/></feMerge></filter>
  </defs>
  <rect width="512" height="512" rx="112" fill="#07111f"/>
  <path d="M98 126h316c28 0 50 22 50 50v160c0 28-22 50-50 50H98c-28 0-50-22-50-50V176c0-28 22-50 50-50Z" fill="#0d1b2e" stroke="url(#g)" stroke-width="18"/>
  <path d="M144 208l58 48-58 48" fill="none" stroke="#17f7d1" stroke-width="30" stroke-linecap="round" stroke-linejoin="round" filter="url(#glow)"/>
  <path d="M230 308h124" stroke="#dffcff" stroke-width="28" stroke-linecap="round" filter="url(#glow)"/>
  <circle cx="386" cy="206" r="12" fill="#17f7d1"/>
  <circle cx="422" cy="206" r="12" fill="#3b82f6"/>
  <path d="M176 110V78m160 32V78M184 78h144" stroke="#17f7d1" stroke-width="18" stroke-linecap="round" opacity=".85"/>
</svg>